<?xml version="1.0" encoding="UTF-8" standalone="no"?>
<!-- Created with Inkscape (http://www.inkscape.org/) -->

<svg
   xmlns:dc="http://purl.org/dc/elements/1.1/"
   xmlns:cc="http://creativecommons.org/ns#"
   xmlns:rdf="http://www.w3.org/1999/02/22-rdf-syntax-ns#"
   xmlns:svg="http://www.w3.org/2000/svg"
   xmlns="http://www.w3.org/2000/svg"
   xmlns:sodipodi="http://sodipodi.sourceforge.net/DTD/sodipodi-0.dtd"
   xmlns:inkscape="http://www.inkscape.org/namespaces/inkscape"
   width="1065.4622"
   height="226.00215"
   viewBox="0 0 281.90354 59.7964"
   version="1.1"
   id="svg8"
   inkscape:version="0.92.2 (5c3e80d, 2017-08-06)"
   sodipodi:docname="horizontal_color.svg">
  <defs
     id="defs2" />
  <sodipodi:namedview
     id="base"
     pagecolor="#ffffff"
     bordercolor="#666666"
     borderopacity="1.0"
     inkscape:pageopacity="0.0"
     inkscape:pageshadow="2"
     inkscape:zoom="0.35753087"
     inkscape:cx="272.21077"
     inkscape:cy="68.172426"
     inkscape:document-units="mm"
     inkscape:current-layer="layer1"
     inkscape:document-rotation="0"
     showgrid="false"
     borderlayer="true"
     inkscape:showpageshadow="false"
     units="px"
     inkscape:pagecheckerboard="false"
     showguides="true"
     inkscape:window-width="1366"
     inkscape:window-height="713"
     inkscape:window-x="0"
     inkscape:window-y="0"
     inkscape:window-maximized="1"
     fit-margin-top="0"
     fit-margin-left="0"
     fit-margin-right="0"
     fit-margin-bottom="0">
    <inkscape:grid
       type="xygrid"
       id="grid10"
       originx="-68.883427"
       originy="-86.650491" />
  </sodipodi:namedview>
  <metadata
     id="metadata5">
    <rdf:RDF>
      <cc:Work
         rdf:about="">
        <dc:format>image/svg+xml</dc:format>
        <dc:type
           rdf:resource="http://purl.org/dc/dcmitype/StillImage" />
        <dc:title></dc:title>
      </cc:Work>
    </rdf:RDF>
  </metadata>
  <g
     inkscape:label="Layer 1"
     inkscape:groupmode="layer"
     id="layer1"
     transform="translate(-68.883425,-150.55311)">
    <g
       id="g1682"
       transform="matrix(1.0227823,0,0,1.0227823,76.570065,41.52696)">
      <g
         id="g905"
         transform="matrix(0.35277777,0,0,-0.35277777,38.323093,133.5026)">
        <path
           d="m 0,0 c -0.137,0.51 -0.481,0.939 -0.949,1.185 l -15.137,7.908 15.137,7.91 c 0.466,0.244 0.809,0.671 0.947,1.18 0.138,0.506 0.059,1.048 -0.221,1.496 l -6.608,10.574 c -0.272,0.434 -0.707,0.739 -1.208,0.847 -0.498,0.103 -1.024,0.004 -1.448,-0.282 l -13.511,-9.096 0.919,14.848 c 0.033,0.52 -0.151,1.031 -0.509,1.409 -0.357,0.38 -0.854,0.596 -1.376,0.596 h -12.391 c -0.521,0 -1.019,-0.216 -1.376,-0.596 -0.357,-0.378 -0.541,-0.889 -0.509,-1.409 l 0.918,-14.826 -13.336,9.069 C -51.08,31.101 -51.6,31.205 -52.1,31.103 -52.599,31 -53.036,30.7 -53.311,30.271 l -6.776,-10.575 c -0.287,-0.447 -0.372,-0.995 -0.234,-1.508 0.136,-0.512 0.484,-0.944 0.956,-1.188 L -44.097,9.093 -59.365,1.187 c -0.474,-0.245 -0.823,-0.679 -0.958,-1.195 -0.136,-0.515 -0.048,-1.065 0.244,-1.513 l 6.776,-10.408 c 0.275,-0.423 0.707,-0.717 1.201,-0.819 0.494,-0.101 1.008,-0.001 1.429,0.278 l 13.217,8.812 -0.785,-14.408 c -0.028,-0.518 0.158,-1.025 0.514,-1.402 0.357,-0.377 0.853,-0.59 1.372,-0.59 h 12.391 c 0.519,0 1.015,0.213 1.372,0.59 0.356,0.377 0.542,0.884 0.514,1.402 l -0.785,14.43 13.39,-8.839 c 0.424,-0.279 0.941,-0.378 1.436,-0.27 0.495,0.105 0.928,0.407 1.199,0.835 l 6.609,10.408 C 0.054,-1.056 0.137,-0.511 0,0"
           style="fill:#00a99d;fill-opacity:1;fill-rule:nonzero;stroke:none"
           id="path907"
           inkscape:connector-curvature="0" />
      </g>
      <g
         id="g909"
         transform="matrix(0.35277777,0,0,-0.35277777,38.411305,141.04354)">
        <path
           d="m 0,0 c -8.218,-8.219 -19.144,-12.744 -30.766,-12.744 -11.622,0 -22.548,4.525 -30.766,12.744 -8.218,8.218 -12.743,19.144 -12.743,30.766 0,11.622 4.525,22.547 12.743,30.766 8.218,8.218 19.144,12.743 30.766,12.743 C -19.144,74.275 -8.218,69.75 0,61.532 16.965,44.567 16.965,16.964 0,0 M 16.522,78.055 C 3.465,91.112 -13.65,97.642 -30.766,97.642 c -17.115,0 -34.23,-6.53 -47.289,-19.587 -23.197,-23.198 -25.771,-59.188 -7.76,-85.247 l -44.371,-44.37 16.523,-16.522 44.267,44.268 c 11.538,-8.185 25.081,-12.294 38.63,-12.294 17.116,0 34.231,6.529 47.288,19.587 26.118,26.117 26.118,68.461 0,94.578"
           style="fill:#81cdd1;fill-opacity:1;fill-rule:nonzero;stroke:none"
           id="path911"
           inkscape:connector-curvature="0" />
      </g>
      <g
         id="g913"
         transform="matrix(0.35277777,0,0,-0.35277777,70.904784,147.78009)">
        <path
           d="m 0,0 c 4.46,0 7.845,0.238 10.155,0.716 v 16.01 c -0.797,0.239 -1.952,0.477 -3.464,0.716 -1.513,0.239 -3.187,0.359 -5.018,0.359 -1.595,0 -3.207,-0.12 -4.839,-0.359 -1.634,-0.239 -3.106,-0.677 -4.421,-1.314 -1.313,-0.639 -2.37,-1.534 -3.166,-2.688 -0.796,-1.156 -1.194,-2.609 -1.194,-4.361 0,-3.425 1.076,-5.794 3.226,-7.108 C -6.57,0.656 -3.664,0 0,0 m -1.194,53.881 c 4.779,0 8.799,-0.597 12.066,-1.791 3.265,-1.195 5.872,-2.867 7.825,-5.019 1.951,-2.15 3.346,-4.759 4.182,-7.825 0.837,-3.066 1.255,-6.433 1.255,-10.096 V -8.722 C 21.902,-9.2 18.536,-9.778 14.038,-10.454 9.538,-11.13 4.46,-11.47 -1.194,-11.47 c -3.744,0 -7.169,0.358 -10.276,1.076 -3.105,0.716 -5.754,1.87 -7.944,3.463 -2.191,1.593 -3.904,3.663 -5.137,6.213 -1.236,2.549 -1.852,5.694 -1.852,9.439 0,3.585 0.697,6.61 2.091,9.08 1.393,2.468 3.286,4.479 5.674,6.033 2.39,1.553 5.157,2.668 8.305,3.346 3.145,0.675 6.43,1.014 9.855,1.014 1.593,0 3.265,-0.1 5.019,-0.298 1.75,-0.2 3.623,-0.538 5.614,-1.016 v 2.39 c 0,1.672 -0.199,3.265 -0.597,4.779 -0.399,1.513 -1.096,2.847 -2.091,4.002 -0.996,1.154 -2.311,2.05 -3.943,2.688 -1.632,0.637 -3.684,0.956 -6.152,0.956 -3.345,0 -6.412,-0.239 -9.199,-0.716 -2.789,-0.479 -5.06,-1.037 -6.811,-1.673 l -1.791,11.708 c 1.831,0.636 4.498,1.273 8.003,1.912 3.506,0.636 7.247,0.955 11.232,0.955"
           style="fill:#00a99d;fill-opacity:1;fill-rule:nonzero;stroke:none"
           id="path915"
           inkscape:connector-curvature="0" />
      </g>
      <g
         id="g917"
         transform="matrix(0.35277777,0,0,-0.35277777,90.123588,147.69605)">
        <path
           d="m 0,0 c 3.824,0 6.611,0.457 8.362,1.374 1.752,0.914 2.629,2.488 2.629,4.719 0,2.07 -0.936,3.782 -2.806,5.137 -1.873,1.354 -4.959,2.827 -9.26,4.42 -2.628,0.956 -5.037,1.972 -7.229,3.048 -2.19,1.075 -4.082,2.329 -5.675,3.763 -1.594,1.434 -2.848,3.166 -3.762,5.197 -0.917,2.03 -1.374,4.52 -1.374,7.467 0,5.735 2.109,10.254 6.333,13.56 4.219,3.304 9.954,4.958 17.202,4.958 3.664,0 7.169,-0.339 10.514,-1.015 3.346,-0.678 5.854,-1.335 7.527,-1.972 L 19.832,38.947 c -1.595,0.718 -3.625,1.375 -6.093,1.972 -2.469,0.598 -5.336,0.896 -8.601,0.896 -2.948,0 -5.338,-0.499 -7.169,-1.493 -1.832,-0.997 -2.748,-2.53 -2.748,-4.599 0,-1.037 0.179,-1.953 0.538,-2.748 0.358,-0.797 0.973,-1.535 1.852,-2.21 0.875,-0.679 2.031,-1.356 3.464,-2.032 1.435,-0.678 3.185,-1.374 5.257,-2.091 3.424,-1.275 6.333,-2.53 8.722,-3.763 2.389,-1.236 4.36,-2.629 5.914,-4.181 1.553,-1.553 2.688,-3.327 3.405,-5.317 0.716,-1.992 1.074,-4.382 1.074,-7.169 0,-5.973 -2.209,-10.494 -6.63,-13.56 -4.42,-3.065 -10.733,-4.598 -18.936,-4.598 -5.496,0 -9.917,0.458 -13.262,1.372 -3.344,0.916 -5.695,1.653 -7.049,2.211 l 2.509,12.067 c 2.15,-0.878 4.719,-1.714 7.707,-2.51 C -7.228,0.397 -3.823,0 0,0"
           style="fill:#00a99d;fill-opacity:1;fill-rule:nonzero;stroke:none"
           id="path919"
           inkscape:connector-curvature="0" />
      </g>
      <g
         id="g921"
         transform="matrix(0.35277777,0,0,-0.35277777,102.55692,123.50354)">
        <path
           d="M 0,0 14.456,2.39 V -16.487 H 36.678 V -28.555 H 14.456 v -25.447 c 0,-5.018 0.796,-8.602 2.389,-10.752 1.592,-2.15 4.302,-3.225 8.125,-3.225 2.628,0 4.959,0.277 6.989,0.835 2.03,0.557 3.645,1.076 4.838,1.553 l 2.389,-11.469 c -1.672,-0.717 -3.864,-1.455 -6.571,-2.21 -2.708,-0.756 -5.895,-1.135 -9.557,-1.135 -4.461,0 -8.184,0.597 -11.17,1.792 -2.989,1.196 -5.359,2.927 -7.109,5.197 -1.754,2.27 -2.987,5.019 -3.705,8.244 C 0.358,-61.947 0,-58.264 0,-54.121 Z"
           style="fill:#00a99d;fill-opacity:1;fill-rule:nonzero;stroke:none"
           id="path923"
           inkscape:connector-curvature="0" />
      </g>
      <g
         id="g925"
         transform="matrix(0.35277777,0,0,-0.35277777,132.56509,138.1707)">
        <path
           d="m 0,0 c 0,1.99 -0.279,3.883 -0.836,5.675 -0.558,1.792 -1.373,3.346 -2.449,4.659 -1.075,1.314 -2.39,2.349 -3.943,3.106 -1.553,0.756 -3.404,1.135 -5.554,1.135 -2.232,0 -4.183,-0.418 -5.855,-1.254 -1.673,-0.837 -3.089,-1.932 -4.241,-3.286 C -24.034,8.68 -24.929,7.127 -25.566,5.376 -26.204,3.623 -26.642,1.831 -26.88,0 Z m -41.935,-6.452 c 0,5.496 0.816,10.314 2.45,14.456 1.631,4.142 3.802,7.587 6.512,10.335 2.706,2.748 5.813,4.818 9.318,6.213 3.505,1.392 7.088,2.09 10.753,2.09 8.601,0 15.311,-2.669 20.131,-8.004 4.817,-5.337 7.228,-13.303 7.228,-23.895 0,-0.797 -0.02,-1.693 -0.06,-2.688 -0.042,-0.996 -0.101,-1.893 -0.179,-2.689 H -27 c 0.396,-5.017 2.17,-8.899 5.316,-11.648 3.146,-2.747 7.705,-4.121 13.68,-4.121 3.504,0 6.709,0.317 9.618,0.956 2.906,0.635 5.197,1.313 6.868,2.03 l 1.914,-11.828 c -0.798,-0.4 -1.894,-0.817 -3.288,-1.254 -1.393,-0.439 -2.986,-0.836 -4.778,-1.194 -1.792,-0.36 -3.724,-0.659 -5.795,-0.896 -2.07,-0.24 -4.181,-0.358 -6.331,-0.358 -5.496,0 -10.275,0.816 -14.338,2.448 -4.06,1.632 -7.407,3.901 -10.035,6.81 -2.628,2.906 -4.581,6.332 -5.852,10.274 -1.276,3.943 -1.914,8.263 -1.914,12.963"
           style="fill:#00a99d;fill-opacity:1;fill-rule:nonzero;stroke:none"
           id="path927"
           inkscape:connector-curvature="0" />
      </g>
      <g
         id="g929"
         transform="matrix(0.35277777,0,0,-0.35277777,154.56649,133.91394)">
        <path
           d="m 0,0 c -1.194,0.398 -2.849,0.816 -4.959,1.255 -2.111,0.436 -4.56,0.656 -7.347,0.656 -1.594,0 -3.286,-0.16 -5.077,-0.477 -1.792,-0.32 -3.046,-0.598 -3.764,-0.836 v -50.06 h -14.457 v 59.498 c 2.789,1.034 6.274,2.01 10.455,2.927 4.182,0.915 8.82,1.374 13.92,1.374 0.954,0 2.069,-0.06 3.343,-0.18 1.275,-0.119 2.548,-0.279 3.824,-0.477 1.273,-0.201 2.509,-0.439 3.704,-0.717 1.194,-0.28 2.15,-0.538 2.866,-0.776 z"
           style="fill:#00a99d;fill-opacity:1;fill-rule:nonzero;stroke:none"
           id="path931"
           inkscape:connector-curvature="0" />
      </g>
      <path
         d="m 163.07993,151.36293 h -5.09976 v -22.04297 h 5.09976 z m 0.54786,-28.49139 c 0,0.95567 -0.30939,1.71415 -0.9271,2.27577 -0.61807,0.56233 -1.34867,0.84278 -2.19181,0.84278 -0.87136,0 -1.61607,-0.28045 -2.23344,-0.84278 -0.61877,-0.56162 -0.92745,-1.3201 -0.92745,-2.27577 0,-0.98355 0.30868,-1.75613 0.92745,-2.31846 0.61737,-0.56197 1.36208,-0.84243 2.23344,-0.84243 0.84314,0 1.57374,0.28046 2.19181,0.84243 0.61771,0.56233 0.9271,1.33491 0.9271,2.31846"
         style="fill:#00a99d;fill-opacity:1;fill-rule:nonzero;stroke:none;stroke-width:0.35277775"
         id="path933"
         inkscape:connector-curvature="0" />
      <g
         id="g935"
         transform="matrix(0.35277777,0,0,-0.35277777,174.03783,147.69605)">
        <path
           d="m 0,0 c 3.824,0 6.611,0.457 8.362,1.374 1.752,0.914 2.629,2.488 2.629,4.719 0,2.07 -0.936,3.782 -2.806,5.137 -1.873,1.354 -4.959,2.827 -9.26,4.42 -2.628,0.956 -5.037,1.972 -7.229,3.048 -2.19,1.075 -4.082,2.329 -5.675,3.763 -1.594,1.434 -2.848,3.166 -3.762,5.197 -0.917,2.03 -1.374,4.52 -1.374,7.467 0,5.735 2.109,10.254 6.333,13.56 4.219,3.304 9.954,4.958 17.202,4.958 3.664,0 7.169,-0.339 10.514,-1.015 3.346,-0.678 5.854,-1.335 7.527,-1.972 L 19.832,38.947 c -1.595,0.718 -3.625,1.375 -6.093,1.972 -2.469,0.598 -5.336,0.896 -8.601,0.896 -2.948,0 -5.338,-0.499 -7.169,-1.493 -1.832,-0.997 -2.748,-2.53 -2.748,-4.599 0,-1.037 0.179,-1.953 0.538,-2.748 0.358,-0.797 0.973,-1.535 1.852,-2.21 0.875,-0.679 2.031,-1.356 3.464,-2.032 1.435,-0.678 3.185,-1.374 5.257,-2.091 3.424,-1.275 6.333,-2.53 8.722,-3.763 2.389,-1.236 4.36,-2.629 5.914,-4.181 1.553,-1.553 2.688,-3.327 3.405,-5.317 0.716,-1.992 1.074,-4.382 1.074,-7.169 0,-5.973 -2.209,-10.494 -6.63,-13.56 -4.42,-3.065 -10.733,-4.598 -18.936,-4.598 -5.496,0 -9.917,0.458 -13.262,1.372 -3.344,0.916 -5.695,1.653 -7.049,2.211 l 2.509,12.067 c 2.15,-0.878 4.719,-1.714 7.707,-2.51 C -7.228,0.397 -3.823,0 0,0"
           style="fill:#00a99d;fill-opacity:1;fill-rule:nonzero;stroke:none"
           id="path937"
           inkscape:connector-curvature="0" />
      </g>
      <g
         id="g939"
         transform="matrix(0.35277777,0,0,-0.35277777,191.82384,137.91818)">
        <path
           d="m 0,0 c 1.831,1.912 3.781,3.963 5.854,6.153 2.07,2.191 4.102,4.38 6.093,6.572 1.991,2.189 3.883,4.3 5.675,6.332 1.792,2.03 3.325,3.802 4.601,5.316 H 39.307 C 35.332,19.912 31.14,15.293 26.73,10.515 22.321,5.735 17.891,1.076 13.441,-3.464 c 2.384,-1.992 4.886,-4.402 7.509,-7.228 2.624,-2.828 5.166,-5.835 7.629,-9.02 2.465,-3.187 4.768,-6.374 6.915,-9.558 2.147,-3.186 3.936,-6.134 5.365,-8.841 H 24.133 c -1.434,2.468 -3.087,5.057 -4.958,7.766 -1.872,2.706 -3.883,5.334 -6.033,7.885 -2.151,2.548 -4.342,4.958 -6.572,7.229 -2.229,2.269 -4.421,4.2 -6.57,5.793 V -38.111 H -14.456 V 52.21 L 0,54.6 Z"
           style="fill:#00a99d;fill-opacity:1;fill-rule:nonzero;stroke:none"
           id="path941"
           inkscape:connector-curvature="0" />
      </g>
      <g
         id="g943"
         transform="matrix(0.35277777,0,0,-0.35277777,216.56376,151.78401)">
        <path
           d="m 0,0 c -4.302,0.079 -7.867,0.557 -10.693,1.432 -2.828,0.875 -5.078,2.131 -6.75,3.764 -1.673,1.631 -2.849,3.662 -3.525,6.093 -0.678,2.429 -1.014,5.197 -1.014,8.304 v 71.922 l 14.456,2.389 V 22.341 c 0,-1.754 0.137,-3.227 0.418,-4.421 0.277,-1.195 0.776,-2.21 1.492,-3.046 0.718,-0.837 1.691,-1.475 2.928,-1.912 1.233,-0.439 2.807,-0.776 4.719,-1.016 z"
           style="fill:#81cdd1;fill-opacity:1;fill-rule:nonzero;stroke:none"
           id="path945"
           inkscape:connector-curvature="0" />
      </g>
      <path
         d="m 225.49901,151.36293 h -5.09975 v -22.04297 h 5.09975 z m 0.54787,-28.49139 c 0,0.95567 -0.30939,1.71415 -0.92746,2.27577 -0.61806,0.56233 -1.34867,0.84278 -2.19181,0.84278 -0.87136,0 -1.61607,-0.28045 -2.23343,-0.84278 -0.61842,-0.56162 -0.9271,-1.3201 -0.9271,-2.27577 0,-0.98355 0.30868,-1.75613 0.9271,-2.31846 0.61736,-0.56197 1.36207,-0.84243 2.23343,-0.84243 0.84314,0 1.57375,0.28046 2.19181,0.84243 0.61807,0.56233 0.92746,1.33491 0.92746,2.31846"
         style="fill:#81cdd1;fill-opacity:1;fill-rule:nonzero;stroke:none;stroke-width:0.35277775"
         id="path947"
         inkscape:connector-curvature="0" />
      <g
         id="g949"
         transform="matrix(0.35277777,0,0,-0.35277777,230.93532,130.03614)">
        <path
           d="m 0,0 c 2.787,0.794 6.411,1.553 10.872,2.269 4.459,0.717 9.397,1.076 14.815,1.076 5.097,0 9.359,-0.699 12.783,-2.091 3.424,-1.395 6.152,-3.346 8.184,-5.854 2.031,-2.509 3.465,-5.537 4.301,-9.081 0.836,-3.544 1.254,-7.427 1.254,-11.648 V -60.454 H 37.753 v 32.855 c 0,3.345 -0.22,6.193 -0.656,8.543 -0.439,2.348 -1.156,4.259 -2.152,5.734 -0.997,1.472 -2.349,2.548 -4.06,3.226 -1.715,0.676 -3.806,1.015 -6.274,1.015 -1.832,0 -3.745,-0.118 -5.734,-0.357 -1.992,-0.24 -3.465,-0.44 -4.421,-0.599 V -60.454 H 0 Z"
           style="fill:#81cdd1;fill-opacity:1;fill-rule:nonzero;stroke:none"
           id="path951"
           inkscape:connector-curvature="0" />
      </g>
      <g
         id="g953"
         transform="matrix(0.35277777,0,0,-0.35277777,254.2848,123.50354)">
        <path
           d="M 0,0 14.456,2.39 V -16.487 H 36.677 V -28.555 H 14.456 v -25.447 c 0,-5.018 0.796,-8.602 2.389,-10.752 1.592,-2.15 4.301,-3.225 8.125,-3.225 2.628,0 4.958,0.277 6.988,0.835 2.031,0.557 3.645,1.076 4.839,1.553 l 2.389,-11.469 c -1.672,-0.717 -3.864,-1.455 -6.572,-2.21 -2.707,-0.756 -5.894,-1.135 -9.556,-1.135 -4.462,0 -8.184,0.597 -11.17,1.792 -2.989,1.196 -5.36,2.927 -7.11,5.197 -1.753,2.27 -2.986,5.019 -3.704,8.244 C 0.358,-61.947 0,-58.264 0,-54.121 Z"
           style="fill:#81cdd1;fill-opacity:1;fill-rule:nonzero;stroke:none"
           id="path955"
           inkscape:connector-curvature="0" />
      </g>
    </g>
  </g>
</svg>
