<?xml version="1.0" encoding="UTF-8" standalone="no"?>
<!-- Created with Inkscape (http://www.inkscape.org/) -->

<svg
   xmlns:dc="http://purl.org/dc/elements/1.1/"
   xmlns:cc="http://creativecommons.org/ns#"
   xmlns:rdf="http://www.w3.org/1999/02/22-rdf-syntax-ns#"
   xmlns:svg="http://www.w3.org/2000/svg"
   xmlns="http://www.w3.org/2000/svg"
   xmlns:sodipodi="http://sodipodi.sourceforge.net/DTD/sodipodi-0.dtd"
   xmlns:inkscape="http://www.inkscape.org/namespaces/inkscape"
   width="566.1662"
   height="564.22675"
   viewBox="0 0 149.79814 149.28499"
   version="1.1"
   id="svg8"
   inkscape:version="0.92.2 (5c3e80d, 2017-08-06)"
   sodipodi:docname="icon_white.svg"
   inkscape:export-filename="/home/anxhelo/Files/Design/asterisklint/icon_black.png"
   inkscape:export-xdpi="96"
   inkscape:export-ydpi="96">
  <defs
     id="defs2" />
  <sodipodi:namedview
     id="base"
     pagecolor="#ffffff"
     bordercolor="#666666"
     borderopacity="1.0"
     inkscape:pageopacity="0.0"
     inkscape:pageshadow="2"
     inkscape:zoom="0.71506173"
     inkscape:cx="221.27796"
     inkscape:cy="289.15925"
     inkscape:document-units="mm"
     inkscape:current-layer="g2492"
     inkscape:document-rotation="0"
     showgrid="false"
     borderlayer="true"
     inkscape:showpageshadow="false"
     units="px"
     inkscape:pagecheckerboard="false"
     showguides="true"
     inkscape:window-width="1366"
     inkscape:window-height="713"
     inkscape:window-x="0"
     inkscape:window-y="0"
     inkscape:window-maximized="1"
     fit-margin-top="0"
     fit-margin-left="0"
     fit-margin-right="0"
     fit-margin-bottom="0">
    <inkscape:grid
       type="xygrid"
       id="grid10"
       originx="-161.10117"
       originy="-75.605866" />
  </sodipodi:namedview>
  <metadata
     id="metadata5">
    <rdf:RDF>
      <cc:Work
         rdf:about="">
        <dc:format>image/svg+xml</dc:format>
        <dc:type
           rdf:resource="http://purl.org/dc/dcmitype/StillImage" />
        <dc:title></dc:title>
      </cc:Work>
    </rdf:RDF>
  </metadata>
  <g
     inkscape:label="Layer 1"
     inkscape:groupmode="layer"
     id="layer1"
     transform="translate(-161.10117,-72.10914)">
    <g
       id="g2409">
      <g
         id="g2492"
         transform="matrix(1.5058699,0,0,1.5058699,-81.496244,-111.99664)">
        <g
           transform="matrix(0.41055631,0,0,-0.41055631,238.8272,167.88039)"
           id="g853"
           style="fill:#ffffff">
          <path
             inkscape:connector-curvature="0"
             id="path855"
             style="fill:#ffffff;fill-opacity:1;fill-rule:nonzero;stroke:none"
             d="m 0,0 c -0.199,0.743 -0.701,1.369 -1.383,1.726 l -22.054,11.523 22.054,11.525 c 0.679,0.355 1.179,0.978 1.38,1.718 0.201,0.739 0.085,1.529 -0.321,2.18 l -9.628,15.407 c -0.397,0.633 -1.031,1.077 -1.761,1.234 -0.725,0.151 -1.491,0.007 -2.11,-0.409 l -19.686,-13.255 1.34,21.634 c 0.047,0.758 -0.222,1.502 -0.742,2.054 -0.521,0.554 -1.245,0.868 -2.004,0.868 h -18.056 c -0.758,0 -1.484,-0.314 -2.004,-0.868 -0.52,-0.552 -0.789,-1.296 -0.742,-2.054 l 1.337,-21.601 -19.431,13.214 c -0.614,0.418 -1.371,0.57 -2.098,0.42 -0.728,-0.149 -1.365,-0.586 -1.765,-1.211 l -9.874,-15.408 c -0.418,-0.651 -0.542,-1.448 -0.342,-2.195 0.201,-0.747 0.706,-1.376 1.394,-1.731 L -64.25,13.249 -86.496,1.73 c -0.691,-0.357 -1.198,-0.99 -1.396,-1.741 -0.199,-0.752 -0.07,-1.552 0.355,-2.204 l 9.874,-15.165 c 0.4,-0.616 1.03,-1.046 1.75,-1.194 0.719,-0.147 1.469,-10e-4 2.081,0.406 l 19.258,12.839 -1.144,-20.994 c -0.041,-0.754 0.231,-1.492 0.749,-2.041 0.521,-0.549 1.243,-0.86 1.998,-0.86 h 18.056 c 0.755,0 1.477,0.311 1.998,0.86 0.519,0.549 0.79,1.287 0.749,2.041 l -1.145,21.026 19.511,-12.879 c 0.617,-0.407 1.369,-0.55 2.092,-0.393 0.722,0.154 1.351,0.592 1.747,1.215 l 9.628,15.166 C 0.078,-1.537 0.199,-0.744 0,0" />
        </g>
        <g
           transform="matrix(0.41055631,0,0,-0.41055631,238.97673,180.66737)"
           id="g857"
           style="fill:#ffffff;opacity:0.5">
          <path
             inkscape:connector-curvature="0"
             id="path859"
             style="fill:#ffffff;fill-opacity:1;fill-rule:nonzero;stroke:none"
             d="m 0,0 c -11.974,-11.974 -27.893,-18.567 -44.826,-18.567 -16.934,0 -32.854,6.593 -44.827,18.567 -11.974,11.974 -18.568,27.894 -18.568,44.827 0,16.933 6.594,32.853 18.568,44.826 11.973,11.974 27.893,18.569 44.827,18.569 16.933,0 32.852,-6.595 44.826,-18.569 C 24.718,64.936 24.718,24.718 0,0 m 24.074,113.728 c -19.026,19.026 -43.964,28.539 -68.9,28.539 -24.938,0 -49.874,-9.513 -68.901,-28.539 -33.798,-33.799 -37.55,-86.237 -11.308,-124.207 l -64.648,-64.647 24.074,-24.073 64.5,64.499 c 16.809,-11.925 36.54,-17.913 56.283,-17.913 24.936,0 49.874,9.513 68.9,28.54 38.052,38.052 38.052,99.748 0,137.801" />
        </g>
      </g>
    </g>
  </g>
</svg>
