<?xml version="1.0" encoding="UTF-8" standalone="no"?>
<!-- Created with Inkscape (http://www.inkscape.org/) -->

<svg
   xmlns:dc="http://purl.org/dc/elements/1.1/"
   xmlns:cc="http://creativecommons.org/ns#"
   xmlns:rdf="http://www.w3.org/1999/02/22-rdf-syntax-ns#"
   xmlns:svg="http://www.w3.org/2000/svg"
   xmlns="http://www.w3.org/2000/svg"
   xmlns:sodipodi="http://sodipodi.sourceforge.net/DTD/sodipodi-0.dtd"
   xmlns:inkscape="http://www.inkscape.org/namespaces/inkscape"
   width="780.54181"
   height="485.75412"
   viewBox="0 0 206.51836 128.52244"
   version="1.1"
   id="svg8"
   inkscape:version="0.92.2 (5c3e80d, 2017-08-06)"
   sodipodi:docname="vertical_black.svg"
   inkscape:export-filename="/home/anxhelo/Files/Design/asterisklint/vertical_color.png"
   inkscape:export-xdpi="96"
   inkscape:export-ydpi="96">
  <defs
     id="defs2" />
  <sodipodi:namedview
     id="base"
     pagecolor="#ffffff"
     bordercolor="#666666"
     borderopacity="1.0"
     inkscape:pageopacity="0.0"
     inkscape:pageshadow="2"
     inkscape:zoom="0.505625"
     inkscape:cx="281.84737"
     inkscape:cy="213.48719"
     inkscape:document-units="mm"
     inkscape:current-layer="layer1"
     inkscape:document-rotation="0"
     showgrid="false"
     borderlayer="true"
     inkscape:showpageshadow="false"
     units="px"
     inkscape:pagecheckerboard="false"
     showguides="true"
     inkscape:window-width="1366"
     inkscape:window-height="713"
     inkscape:window-x="0"
     inkscape:window-y="0"
     inkscape:window-maximized="1"
     fit-margin-top="0"
     fit-margin-left="0"
     fit-margin-right="0"
     fit-margin-bottom="0">
    <inkscape:grid
       type="xygrid"
       id="grid10"
       originx="-108.14585"
       originy="-60.279362" />
  </sodipodi:namedview>
  <metadata
     id="metadata5">
    <rdf:RDF>
      <cc:Work
         rdf:about="">
        <dc:format>image/svg+xml</dc:format>
        <dc:type
           rdf:resource="http://purl.org/dc/dcmitype/StillImage" />
        <dc:title></dc:title>
      </cc:Work>
    </rdf:RDF>
  </metadata>
  <g
     inkscape:label="Layer 1"
     inkscape:groupmode="layer"
     id="layer1"
     transform="translate(-108.14585,-108.1982)">
    <g
       id="g2409"
       style="fill:#000000">
      <g
         id="g853"
         transform="matrix(0.35277777,0,0,-0.35277777,227.88864,147.3994)"
         style="fill:#000000">
        <path
           d="m 0,0 c -0.199,0.743 -0.701,1.369 -1.383,1.726 l -22.054,11.523 22.054,11.525 c 0.679,0.355 1.179,0.978 1.38,1.718 0.201,0.739 0.085,1.529 -0.321,2.18 l -9.628,15.407 c -0.397,0.633 -1.031,1.077 -1.761,1.234 -0.725,0.151 -1.491,0.007 -2.11,-0.409 l -19.686,-13.255 1.34,21.634 c 0.047,0.758 -0.222,1.502 -0.742,2.054 -0.521,0.554 -1.245,0.868 -2.004,0.868 h -18.056 c -0.758,0 -1.484,-0.314 -2.004,-0.868 -0.52,-0.552 -0.789,-1.296 -0.742,-2.054 l 1.337,-21.601 -19.431,13.214 c -0.614,0.418 -1.371,0.57 -2.098,0.42 -0.728,-0.149 -1.365,-0.586 -1.765,-1.211 l -9.874,-15.408 c -0.418,-0.651 -0.542,-1.448 -0.342,-2.195 0.201,-0.747 0.706,-1.376 1.394,-1.731 L -64.25,13.249 -86.496,1.73 c -0.691,-0.357 -1.198,-0.99 -1.396,-1.741 -0.199,-0.752 -0.07,-1.552 0.355,-2.204 l 9.874,-15.165 c 0.4,-0.616 1.03,-1.046 1.75,-1.194 0.719,-0.147 1.469,-10e-4 2.081,0.406 l 19.258,12.839 -1.144,-20.994 c -0.041,-0.754 0.231,-1.492 0.749,-2.041 0.521,-0.549 1.243,-0.86 1.998,-0.86 h 18.056 c 0.755,0 1.477,0.311 1.998,0.86 0.519,0.549 0.79,1.287 0.749,2.041 l -1.145,21.026 19.511,-12.879 c 0.617,-0.407 1.369,-0.55 2.092,-0.393 0.722,0.154 1.351,0.592 1.747,1.215 l 9.628,15.166 C 0.078,-1.537 0.199,-0.744 0,0"
           style="fill:#000000;fill-opacity:1;fill-rule:nonzero;stroke:none"
           id="path855"
           inkscape:connector-curvature="0" />
      </g>
      <g
         id="g857"
         transform="matrix(0.35277777,0,0,-0.35277777,228.01713,158.38684)"
         style="fill:#000000">
        <path
           d="m 0,0 c -11.974,-11.974 -27.893,-18.567 -44.826,-18.567 -16.934,0 -32.854,6.593 -44.827,18.567 -11.974,11.974 -18.568,27.894 -18.568,44.827 0,16.933 6.594,32.853 18.568,44.826 11.973,11.974 27.893,18.569 44.827,18.569 16.933,0 32.852,-6.595 44.826,-18.569 C 24.718,64.936 24.718,24.718 0,0 m 24.074,113.728 c -19.026,19.026 -43.964,28.539 -68.9,28.539 -24.938,0 -49.874,-9.513 -68.901,-28.539 -33.798,-33.799 -37.55,-86.237 -11.308,-124.207 l -64.648,-64.647 24.074,-24.073 64.5,64.499 c 16.809,-11.925 36.54,-17.913 56.283,-17.913 24.936,0 49.874,9.513 68.9,28.54 38.052,38.052 38.052,99.748 0,137.801"
           style="fill:#000000;fill-opacity:1;fill-rule:nonzero;stroke:none"
           id="path859"
           inkscape:connector-curvature="0" />
      </g>
      <g
         id="g861"
         transform="matrix(0.35277777,0,0,-0.35277777,117.46024,232.5904)"
         style="fill:#000000">
        <path
           d="m 0,0 c 4.46,0 7.845,0.238 10.155,0.716 v 16.01 c -0.797,0.239 -1.952,0.477 -3.464,0.716 -1.513,0.239 -3.187,0.359 -5.018,0.359 -1.595,0 -3.207,-0.12 -4.839,-0.359 -1.634,-0.239 -3.106,-0.677 -4.421,-1.314 -1.313,-0.639 -2.37,-1.534 -3.166,-2.688 -0.796,-1.156 -1.194,-2.609 -1.194,-4.361 0,-3.425 1.076,-5.794 3.226,-7.108 C -6.57,0.656 -3.664,0 0,0 m -1.194,53.881 c 4.779,0 8.799,-0.597 12.066,-1.791 3.265,-1.195 5.872,-2.867 7.825,-5.019 1.951,-2.15 3.346,-4.759 4.182,-7.825 0.837,-3.066 1.255,-6.433 1.255,-10.096 V -8.722 C 21.902,-9.2 18.536,-9.778 14.038,-10.454 9.538,-11.13 4.46,-11.47 -1.194,-11.47 c -3.744,0 -7.169,0.358 -10.276,1.076 -3.105,0.716 -5.754,1.87 -7.944,3.463 -2.191,1.593 -3.904,3.663 -5.137,6.213 -1.236,2.549 -1.852,5.694 -1.852,9.439 0,3.585 0.697,6.61 2.091,9.08 1.393,2.468 3.286,4.479 5.674,6.033 2.39,1.553 5.157,2.668 8.305,3.346 3.145,0.675 6.43,1.014 9.855,1.014 1.593,0 3.265,-0.1 5.019,-0.298 1.75,-0.2 3.623,-0.538 5.614,-1.016 v 2.39 c 0,1.672 -0.199,3.265 -0.597,4.779 -0.399,1.513 -1.096,2.847 -2.091,4.002 -0.996,1.154 -2.311,2.05 -3.943,2.688 -1.632,0.637 -3.684,0.956 -6.152,0.956 -3.345,0 -6.412,-0.239 -9.199,-0.716 -2.789,-0.479 -5.06,-1.037 -6.811,-1.673 l -1.791,11.708 c 1.831,0.636 4.498,1.273 8.003,1.912 3.506,0.636 7.247,0.955 11.232,0.955"
           style="fill:#000000;fill-opacity:1;fill-rule:nonzero;stroke:none"
           id="path863"
           inkscape:connector-curvature="0" />
      </g>
      <g
         id="g865"
         transform="matrix(0.35277777,0,0,-0.35277777,136.67904,232.50636)"
         style="fill:#000000">
        <path
           d="m 0,0 c 3.824,0 6.611,0.457 8.362,1.374 1.752,0.914 2.629,2.488 2.629,4.719 0,2.07 -0.936,3.782 -2.806,5.137 -1.873,1.354 -4.959,2.827 -9.26,4.42 -2.628,0.956 -5.037,1.972 -7.229,3.048 -2.19,1.075 -4.082,2.329 -5.675,3.763 -1.594,1.434 -2.848,3.166 -3.762,5.197 -0.917,2.03 -1.374,4.52 -1.374,7.467 0,5.735 2.109,10.254 6.333,13.56 4.219,3.304 9.954,4.958 17.202,4.958 3.664,0 7.169,-0.339 10.514,-1.015 3.346,-0.678 5.854,-1.335 7.527,-1.972 L 19.832,38.947 c -1.595,0.718 -3.625,1.375 -6.093,1.972 -2.469,0.598 -5.336,0.896 -8.601,0.896 -2.948,0 -5.338,-0.499 -7.169,-1.493 -1.832,-0.997 -2.748,-2.53 -2.748,-4.599 0,-1.037 0.179,-1.953 0.538,-2.748 0.358,-0.797 0.973,-1.535 1.852,-2.21 0.875,-0.679 2.031,-1.356 3.464,-2.032 1.435,-0.678 3.185,-1.374 5.257,-2.091 3.424,-1.275 6.333,-2.53 8.722,-3.763 2.389,-1.236 4.36,-2.629 5.914,-4.181 1.553,-1.553 2.688,-3.327 3.405,-5.317 0.716,-1.992 1.074,-4.382 1.074,-7.169 0,-5.973 -2.209,-10.494 -6.63,-13.56 -4.42,-3.065 -10.733,-4.598 -18.936,-4.598 -5.496,0 -9.917,0.458 -13.262,1.372 -3.344,0.916 -5.695,1.653 -7.049,2.211 l 2.509,12.067 c 2.15,-0.878 4.719,-1.714 7.707,-2.51 C -7.228,0.397 -3.823,0 0,0"
           style="fill:#000000;fill-opacity:1;fill-rule:nonzero;stroke:none"
           id="path867"
           inkscape:connector-curvature="0" />
      </g>
      <g
         id="g869"
         transform="matrix(0.35277777,0,0,-0.35277777,149.11238,208.31385)"
         style="fill:#000000">
        <path
           d="M 0,0 14.456,2.39 V -16.487 H 36.678 V -28.555 H 14.456 v -25.447 c 0,-5.018 0.796,-8.602 2.389,-10.752 1.592,-2.15 4.302,-3.225 8.125,-3.225 2.628,0 4.959,0.277 6.989,0.835 2.03,0.557 3.645,1.076 4.838,1.553 l 2.389,-11.469 c -1.672,-0.717 -3.864,-1.455 -6.571,-2.21 -2.708,-0.756 -5.895,-1.135 -9.557,-1.135 -4.461,0 -8.184,0.597 -11.17,1.792 -2.989,1.196 -5.359,2.927 -7.109,5.197 -1.754,2.27 -2.987,5.019 -3.705,8.244 C 0.358,-61.947 0,-58.264 0,-54.121 Z"
           style="fill:#000000;fill-opacity:1;fill-rule:nonzero;stroke:none"
           id="path871"
           inkscape:connector-curvature="0" />
      </g>
      <g
         id="g873"
         transform="matrix(0.35277777,0,0,-0.35277777,179.12054,222.98101)"
         style="fill:#000000">
        <path
           d="m 0,0 c 0,1.99 -0.279,3.883 -0.836,5.675 -0.558,1.792 -1.373,3.346 -2.449,4.659 -1.075,1.314 -2.39,2.349 -3.943,3.106 -1.553,0.756 -3.404,1.135 -5.554,1.135 -2.232,0 -4.183,-0.418 -5.855,-1.254 -1.673,-0.837 -3.089,-1.932 -4.241,-3.286 C -24.034,8.68 -24.929,7.127 -25.566,5.376 -26.204,3.623 -26.642,1.831 -26.88,0 Z m -41.935,-6.452 c 0,5.496 0.816,10.314 2.45,14.456 1.631,4.142 3.802,7.587 6.512,10.335 2.706,2.748 5.813,4.818 9.318,6.213 3.505,1.392 7.088,2.09 10.753,2.09 8.601,0 15.311,-2.669 20.131,-8.004 4.817,-5.337 7.228,-13.303 7.228,-23.895 0,-0.797 -0.02,-1.693 -0.06,-2.688 -0.042,-0.996 -0.101,-1.893 -0.179,-2.689 H -27 c 0.396,-5.017 2.17,-8.899 5.316,-11.648 3.146,-2.747 7.705,-4.121 13.68,-4.121 3.504,0 6.709,0.317 9.618,0.956 2.906,0.635 5.197,1.313 6.868,2.03 l 1.914,-11.828 c -0.798,-0.4 -1.894,-0.817 -3.288,-1.254 -1.393,-0.439 -2.986,-0.836 -4.778,-1.194 -1.792,-0.36 -3.724,-0.659 -5.795,-0.896 -2.07,-0.24 -4.181,-0.358 -6.331,-0.358 -5.496,0 -10.275,0.816 -14.338,2.448 -4.06,1.632 -7.407,3.901 -10.035,6.81 -2.628,2.906 -4.581,6.332 -5.852,10.274 -1.276,3.943 -1.914,8.263 -1.914,12.963"
           style="fill:#000000;fill-opacity:1;fill-rule:nonzero;stroke:none"
           id="path875"
           inkscape:connector-curvature="0" />
      </g>
      <g
         id="g877"
         transform="matrix(0.35277777,0,0,-0.35277777,201.12195,218.72425)"
         style="fill:#000000">
        <path
           d="m 0,0 c -1.194,0.398 -2.849,0.816 -4.959,1.255 -2.111,0.436 -4.56,0.656 -7.347,0.656 -1.594,0 -3.286,-0.16 -5.077,-0.477 -1.792,-0.32 -3.046,-0.598 -3.764,-0.836 v -50.06 h -14.457 v 59.498 c 2.789,1.034 6.274,2.01 10.455,2.927 4.182,0.915 8.82,1.374 13.92,1.374 0.954,0 2.069,-0.06 3.343,-0.18 1.275,-0.119 2.548,-0.279 3.824,-0.477 1.273,-0.201 2.509,-0.439 3.704,-0.717 1.194,-0.28 2.15,-0.538 2.866,-0.776 z"
           style="fill:#000000;fill-opacity:1;fill-rule:nonzero;stroke:none"
           id="path879"
           inkscape:connector-curvature="0" />
      </g>
      <path
         d="m 209.63539,236.17324 h -5.09976 v -22.04297 h 5.09976 z m 0.54787,-28.49139 c 0,0.95567 -0.30939,1.71415 -0.9271,2.27577 -0.61807,0.56233 -1.34868,0.84278 -2.19181,0.84278 -0.87137,0 -1.61608,-0.28045 -2.23344,-0.84278 -0.61877,-0.56162 -0.92745,-1.3201 -0.92745,-2.27577 0,-0.98355 0.30868,-1.75613 0.92745,-2.31846 0.61736,-0.56197 1.36207,-0.84243 2.23344,-0.84243 0.84313,0 1.57374,0.28046 2.19181,0.84243 0.61771,0.56233 0.9271,1.33491 0.9271,2.31846"
         style="fill:#000000;fill-opacity:1;fill-rule:nonzero;stroke:none;stroke-width:0.35277775"
         id="path881"
         inkscape:connector-curvature="0" />
      <g
         id="g883"
         transform="matrix(0.35277777,0,0,-0.35277777,220.59331,232.50636)"
         style="fill:#000000">
        <path
           d="m 0,0 c 3.824,0 6.611,0.457 8.362,1.374 1.752,0.914 2.629,2.488 2.629,4.719 0,2.07 -0.936,3.782 -2.806,5.137 -1.873,1.354 -4.959,2.827 -9.26,4.42 -2.628,0.956 -5.037,1.972 -7.229,3.048 -2.19,1.075 -4.082,2.329 -5.675,3.763 -1.594,1.434 -2.848,3.166 -3.762,5.197 -0.917,2.03 -1.374,4.52 -1.374,7.467 0,5.735 2.109,10.254 6.333,13.56 4.219,3.304 9.954,4.958 17.202,4.958 3.664,0 7.169,-0.339 10.514,-1.015 3.346,-0.678 5.854,-1.335 7.527,-1.972 L 19.832,38.947 c -1.595,0.718 -3.625,1.375 -6.093,1.972 -2.469,0.598 -5.336,0.896 -8.601,0.896 -2.948,0 -5.338,-0.499 -7.169,-1.493 -1.832,-0.997 -2.748,-2.53 -2.748,-4.599 0,-1.037 0.179,-1.953 0.538,-2.748 0.358,-0.797 0.973,-1.535 1.852,-2.21 0.875,-0.679 2.031,-1.356 3.464,-2.032 1.435,-0.678 3.185,-1.374 5.257,-2.091 3.424,-1.275 6.333,-2.53 8.722,-3.763 2.389,-1.236 4.36,-2.629 5.914,-4.181 1.553,-1.553 2.688,-3.327 3.405,-5.317 0.716,-1.992 1.074,-4.382 1.074,-7.169 0,-5.973 -2.209,-10.494 -6.63,-13.56 -4.42,-3.065 -10.733,-4.598 -18.936,-4.598 -5.496,0 -9.917,0.458 -13.262,1.372 -3.344,0.916 -5.695,1.653 -7.049,2.211 l 2.509,12.067 c 2.15,-0.878 4.719,-1.714 7.707,-2.51 C -7.228,0.397 -3.823,0 0,0"
           style="fill:#000000;fill-opacity:1;fill-rule:nonzero;stroke:none"
           id="path885"
           inkscape:connector-curvature="0" />
      </g>
      <g
         id="g887"
         transform="matrix(0.35277777,0,0,-0.35277777,238.3793,222.72849)"
         style="fill:#000000">
        <path
           d="m 0,0 c 1.831,1.912 3.781,3.963 5.854,6.153 2.07,2.191 4.102,4.38 6.093,6.572 1.991,2.189 3.883,4.3 5.675,6.332 1.792,2.03 3.325,3.802 4.601,5.316 H 39.307 C 35.332,19.912 31.14,15.293 26.73,10.515 22.321,5.735 17.891,1.076 13.441,-3.464 c 2.384,-1.992 4.886,-4.402 7.509,-7.228 2.624,-2.828 5.166,-5.835 7.629,-9.02 2.465,-3.187 4.768,-6.374 6.915,-9.558 2.147,-3.186 3.936,-6.134 5.365,-8.841 H 24.133 c -1.434,2.468 -3.087,5.057 -4.958,7.766 -1.872,2.706 -3.883,5.334 -6.033,7.885 -2.151,2.548 -4.342,4.958 -6.572,7.229 -2.229,2.269 -4.421,4.2 -6.57,5.793 V -38.111 H -14.456 V 52.21 L 0,54.6 Z"
           style="fill:#000000;fill-opacity:1;fill-rule:nonzero;stroke:none"
           id="path889"
           inkscape:connector-curvature="0" />
      </g>
      <g
         id="g891"
         transform="matrix(0.35277777,0,0,-0.35277777,263.11922,236.59432)"
         style="fill:#000000">
        <path
           d="m 0,0 c -4.302,0.079 -7.867,0.557 -10.693,1.432 -2.828,0.875 -5.078,2.131 -6.75,3.764 -1.673,1.631 -2.849,3.662 -3.525,6.093 -0.678,2.429 -1.014,5.197 -1.014,8.304 v 71.922 l 14.456,2.389 V 22.341 c 0,-1.754 0.137,-3.227 0.418,-4.421 0.277,-1.195 0.776,-2.21 1.492,-3.046 0.718,-0.837 1.691,-1.475 2.928,-1.912 1.233,-0.439 2.807,-0.776 4.719,-1.016 z"
           style="fill:#000000;fill-opacity:1;fill-rule:nonzero;stroke:none"
           id="path893"
           inkscape:connector-curvature="0" />
      </g>
      <path
         d="m 272.05448,236.17324 h -5.09975 v -22.04297 h 5.09975 z m 0.54787,-28.49139 c 0,0.95567 -0.30939,1.71415 -0.92746,2.27577 -0.61806,0.56233 -1.34867,0.84278 -2.1918,0.84278 -0.87137,0 -1.61608,-0.28045 -2.23344,-0.84278 -0.61842,-0.56162 -0.9271,-1.3201 -0.9271,-2.27577 0,-0.98355 0.30868,-1.75613 0.9271,-2.31846 0.61736,-0.56197 1.36207,-0.84243 2.23344,-0.84243 0.84313,0 1.57374,0.28046 2.1918,0.84243 0.61807,0.56233 0.92746,1.33491 0.92746,2.31846"
         style="fill:#000000;fill-opacity:1;fill-rule:nonzero;stroke:none;stroke-width:0.35277775"
         id="path895"
         inkscape:connector-curvature="0" />
      <g
         id="g897"
         transform="matrix(0.35277777,0,0,-0.35277777,277.49079,214.84645)"
         style="fill:#000000">
        <path
           d="m 0,0 c 2.787,0.794 6.411,1.553 10.872,2.269 4.459,0.717 9.397,1.076 14.815,1.076 5.097,0 9.359,-0.699 12.783,-2.091 3.424,-1.395 6.152,-3.346 8.184,-5.854 2.031,-2.509 3.465,-5.537 4.301,-9.081 0.836,-3.544 1.254,-7.427 1.254,-11.648 V -60.454 H 37.753 v 32.855 c 0,3.345 -0.22,6.193 -0.656,8.543 -0.439,2.348 -1.156,4.259 -2.152,5.734 -0.997,1.472 -2.349,2.548 -4.06,3.226 -1.715,0.676 -3.806,1.015 -6.274,1.015 -1.832,0 -3.745,-0.118 -5.734,-0.357 -1.992,-0.24 -3.465,-0.44 -4.421,-0.599 V -60.454 H 0 Z"
           style="fill:#000000;fill-opacity:1;fill-rule:nonzero;stroke:none"
           id="path899"
           inkscape:connector-curvature="0" />
      </g>
      <g
         id="g901"
         transform="matrix(0.35277777,0,0,-0.35277777,300.84026,208.31385)"
         style="fill:#000000">
        <path
           d="M 0,0 14.456,2.39 V -16.487 H 36.677 V -28.555 H 14.456 v -25.447 c 0,-5.018 0.796,-8.602 2.389,-10.752 1.592,-2.15 4.301,-3.225 8.125,-3.225 2.628,0 4.958,0.277 6.988,0.835 2.031,0.557 3.645,1.076 4.839,1.553 l 2.389,-11.469 c -1.672,-0.717 -3.864,-1.455 -6.572,-2.21 -2.707,-0.756 -5.894,-1.135 -9.556,-1.135 -4.462,0 -8.184,0.597 -11.17,1.792 -2.989,1.196 -5.36,2.927 -7.11,5.197 -1.753,2.27 -2.986,5.019 -3.704,8.244 C 0.358,-61.947 0,-58.264 0,-54.121 Z"
           style="fill:#000000;fill-opacity:1;fill-rule:nonzero;stroke:none"
           id="path903"
           inkscape:connector-curvature="0" />
      </g>
    </g>
  </g>
</svg>
